<?xml version="1.0" encoding="utf-8"?>
<!-- Generator: Adobe Illustrator 22.1.0, SVG Export Plug-In . SVG Version: 6.00 Build 0)  -->
<svg version="1.1" id="Calque_1" xmlns="http://www.w3.org/2000/svg" xmlns:xlink="http://www.w3.org/1999/xlink" x="0px" y="0px"
	 viewBox="0 0 100 103.7" style="enable-background:new 0 0 100 103.7;" xml:space="preserve">
<style type="text/css">
	.st0{fill:#C3570B;}
</style>
<title>Artboard 1 Copy 104</title>
<desc>Created with Sketch.</desc>
<g>
	<g>
		<path class="st0" d="M32,23L32,23v26c0,9.9,8.1,18,18,18c9.9,0,18-8.1,18-18V23c0-9.9-8.1-18-18-18C40.1,5,32,13.1,32,23L32,23z
			 M28,23c0-12.2,9.8-22,22-22c12.2,0,22,9.8,22,22v26c0,12.2-9.8,22-22,22c-12.2,0-22-9.8-22-22V23L28,23z"/>
		<path class="st0" d="M48,17c0-1.1,0.9-2,2-2c1.1,0,2,0.9,2,2v8c0,1.1-0.9,2-2,2c-1.1,0-2-0.9-2-2V17z"/>
		<path class="st0" d="M50,95.2l8.6-8.6c0.8-0.8,2-0.8,2.8,0c0.8,0.8,0.8,2,0,2.8l-10,10C51,99.8,50.5,100,50,100s-1-0.2-1.4-0.6
			l-10-10c-0.8-0.8-0.8-2,0-2.8c0.8-0.8,2-0.8,2.8,0L50,95.2z"/>
		<path class="st0" d="M50,82.2l8.6-8.6c0.8-0.8,2-0.8,2.8,0c0.8,0.8,0.8,2,0,2.8l-10,10C51,86.8,50.5,87,50,87s-1-0.2-1.4-0.6
			l-10-10c-0.8-0.8-0.8-2,0-2.8c0.8-0.8,2-0.8,2.8,0L50,82.2z"/>
	</g>
</g>
<text transform="matrix(1 0 0 1 0 115)" style="display:none;enable-background:new    ; font-family:'Arial-BoldMT'; font-size:5px;">Created by Nikita Tcherednikov</text>
<text transform="matrix(1 0 0 1 0 120)" style="display:none;enable-background:new    ; font-family:'Arial-BoldMT'; font-size:5px;">from the Noun Project</text>
</svg>
