<?xml version="1.0" encoding="utf-8"?>
<!-- Generator: Adobe Illustrator 22.1.0, SVG Export Plug-In . SVG Version: 6.00 Build 0)  -->
<svg version="1.1" id="Calque_1" xmlns="http://www.w3.org/2000/svg" xmlns:xlink="http://www.w3.org/1999/xlink" x="0px" y="0px"
	 viewBox="0 0 56.8 77.3" style="enable-background:new 0 0 56.8 77.3;" xml:space="preserve">
<style type="text/css">
	.st0{fill:#EC0000;}
</style>
<title>Artboard 1 Copy 77</title>
<desc>Created with Sketch.</desc>
<g>
	<g>
		<path class="st0" d="M36.8,15.2c-0.2-0.2-0.3-0.4-0.3-0.7v-10c0-0.6,0.4-1,1-1s1,0.4,1,1v9h10c0.6,0,1,0.4,1,1s-0.4,1-1,1h-11
			C37.2,15.5,37,15.4,36.8,15.2z"/>
		<path class="st0" d="M37.5,4.5l-0.7-0.3l11,11l-0.3-0.7v33c0,1.6-1.3,3-3,3h-9c-0.6,0-1,0.4-1,1s0.4,1,1,1l0,0h9c2.8,0,5-2.2,5-5
			v-33v-0.4l-0.3-0.3l-11-11l-0.3-0.3h-0.4h-25c-2.8,0-5,2.2-5,5v40c0,2.8,2.2,5,5,5h9c0.6,0,1-0.4,1-1s-0.4-1-1-1h-9
			c-1.7,0-3-1.3-3-3v-40c0-1.7,1.3-3,3-3"/>
		<path class="st0" d="M40.2,61.8c-0.4-0.4-1-0.4-1.4,0l-9.3,9.6V29.5c0-0.6-0.4-1-1-1c-0.6,0-1,0.4-1,1v41.9l-9.3-9.6
			c-0.4-0.4-1-0.4-1.4,0c-0.4,0.4-0.4,1,0,1.4l11,11.4c0,0,0,0,0,0l0,0c0,0,0,0,0,0c0,0,0.1,0,0.1,0.1c0,0,0.1,0.1,0.1,0.1
			c0,0,0,0,0,0c0,0,0,0,0,0c0.1,0,0.1,0,0.2,0c0.1,0,0.1,0,0.2,0c0,0,0,0,0,0c0,0,0,0,0,0c0.1,0,0.1,0,0.2,0c0.1,0,0.1,0,0.2,0
			c0,0,0,0,0,0c0,0,0,0,0,0c0.1,0,0.1-0.1,0.2-0.1c0,0,0.1,0,0.1-0.1c0,0,0,0,0,0l0,0c0,0,0,0,0,0l11-11.4
			C40.6,62.8,40.6,62.2,40.2,61.8"/>
	</g>
</g>
<text transform="matrix(1 0 0 1 -21.5 102.5)" style="font-family:'Arial-BoldMT'; font-size:5px;">Created by Nikita Tcherednikov</text>
<text transform="matrix(1 0 0 1 -21.5 107.5)" style="font-family:'Arial-BoldMT'; font-size:5px;">from the Noun Project</text>
</svg>
